<svg width="135" height="27" viewBox="0 0 135 27" fill="none" xmlns="http://www.w3.org/2000/svg">
<g id="Vector">
<path d="M119.508 12.074V26.7242H117.076V24.5587C116.612 25.3073 115.962 25.8954 115.124 26.3232C114.304 26.7331 113.395 26.9381 112.397 26.9381C111.257 26.9381 110.232 26.7064 109.323 26.243C108.414 25.7618 107.692 25.0489 107.157 24.1043C106.641 23.1597 106.382 22.0101 106.382 20.6556V12.074H108.788V20.3348C108.788 21.7784 109.153 22.8923 109.884 23.6765C110.615 24.4429 111.613 24.8261 112.878 24.8261C114.179 24.8261 115.204 24.4251 115.953 23.6231C116.701 22.821 117.076 21.6537 117.076 20.1209V12.074H119.508Z" fill="white"/>
<path d="M134.844 18.8377C134.844 19.3011 134.818 19.7912 134.764 20.308H123.055C123.144 21.7517 123.634 22.8834 124.525 23.7033C125.434 24.5053 126.53 24.9063 127.813 24.9063C128.865 24.9063 129.738 24.6657 130.433 24.1845C131.146 23.6854 131.645 23.026 131.93 22.2062H134.55C134.158 23.6141 133.374 24.7637 132.198 25.6548C131.021 26.5281 129.56 26.9648 127.813 26.9648C126.423 26.9648 125.176 26.6529 124.071 26.0291C122.983 25.4053 122.128 24.5231 121.504 23.3824C120.88 22.224 120.568 20.8873 120.568 19.3724C120.568 17.8574 120.871 16.5296 121.477 15.389C122.083 14.2483 122.93 13.375 124.017 12.7691C125.122 12.1453 126.387 11.8334 127.813 11.8334C129.203 11.8334 130.433 12.1364 131.503 12.7423C132.572 13.3483 133.392 14.186 133.962 15.2553C134.55 16.3069 134.844 17.501 134.844 18.8377ZM132.331 18.3297C132.331 17.403 132.126 16.6098 131.716 15.9504C131.307 15.2731 130.745 14.7652 130.032 14.4266C129.337 14.0701 128.562 13.8919 127.706 13.8919C126.477 13.8919 125.425 14.284 124.552 15.0682C123.696 15.8524 123.206 16.9396 123.081 18.3297H132.331Z" fill="white"/>
<path d="M119.724 0.120619L125.404 5.27833L119.783 5.36449L116.937 2.78573L119.724 0.120619Z" fill="#FFD000"/>
<path d="M119.783 5.36449L125.404 5.27833L119.842 10.5973L116.996 8.01849L119.783 5.36449Z" fill="url(#paint0_linear_12_1368)"/>
<path d="M126.437 0L132.117 5.15771L126.496 5.24387L123.65 2.66511L126.437 0Z" fill="#FFD000"/>
<path d="M126.496 5.24387L132.117 5.15771L126.555 10.4766L123.709 7.89787L126.496 5.24387Z" fill="url(#paint1_linear_12_1368)"/>
<path d="M14.3561 8.09062V26.7242H11.9233V18.2763H2.43279V26.7242H0V8.09062H2.43279V16.2712H11.9233V8.09062H14.3561Z" fill="white"/>
<path d="M29.3641 12.074V26.7242H26.9313V24.5587C26.4679 25.3073 25.8174 25.8954 24.9798 26.3232C24.1599 26.7331 23.251 26.9381 22.2529 26.9381C21.1122 26.9381 20.0874 26.7064 19.1785 26.243C18.2695 25.7618 17.5477 25.0489 17.013 24.1043C16.4962 23.1597 16.2377 22.0101 16.2377 20.6556V12.074H18.6438V20.3348C18.6438 21.7784 19.0092 22.8923 19.7399 23.6765C20.4706 24.4429 21.4687 24.8261 22.7341 24.8261C24.0352 24.8261 25.06 24.4251 25.8085 23.6231C26.5571 22.821 26.9313 21.6537 26.9313 20.1209V12.074H29.3641Z" fill="white"/>
<path d="M48.9507 11.8066C50.0914 11.8066 51.1073 12.0472 51.9984 12.5285C52.8895 12.9918 53.5935 13.6958 54.1104 14.6404C54.6272 15.585 54.8857 16.7346 54.8857 18.0891V26.7242H52.4796V18.4367C52.4796 16.9752 52.1142 15.8613 51.3835 15.0949C50.6706 14.3107 49.6993 13.9186 48.4695 13.9186C47.2041 13.9186 46.1971 14.3285 45.4486 15.1484C44.7 15.9504 44.3257 17.1178 44.3257 18.6505V26.7242H41.9197V18.4367C41.9197 16.9752 41.5543 15.8613 40.8236 15.0949C40.1107 14.3107 39.1394 13.9186 37.9096 13.9186C36.6442 13.9186 35.6372 14.3285 34.8887 15.1484C34.1401 15.9504 33.7658 17.1178 33.7658 18.6505V26.7242H31.333V12.074H33.7658V14.186C34.247 13.4196 34.8887 12.8314 35.6907 12.4215C36.5105 12.0116 37.4106 11.8066 38.3908 11.8066C39.6206 11.8066 40.7078 12.0829 41.6524 12.6354C42.597 13.1879 43.3009 13.9988 43.7643 15.0682C44.1743 14.0345 44.8515 13.2325 45.7961 12.6621C46.7407 12.0918 47.7922 11.8066 48.9507 11.8066Z" fill="white"/>
<path d="M55.8287 19.3456C55.8287 17.8485 56.1316 16.5386 56.7376 15.4157C57.3436 14.2751 58.1723 13.3929 59.2239 12.7691C60.2932 12.1453 61.4784 11.8334 62.7795 11.8334C64.0627 11.8334 65.1766 12.1096 66.1212 12.6621C67.0658 13.2146 67.7698 13.9097 68.2332 14.7474V12.074H70.6927V26.7242H68.2332V23.9973C67.752 24.8528 67.0302 25.5657 66.0678 26.136C65.1232 26.6885 64.0182 26.9648 62.7528 26.9648C61.4517 26.9648 60.2754 26.644 59.2239 26.0024C58.1723 25.3608 57.3436 24.4607 56.7376 23.3022C56.1316 22.1438 55.8287 20.8249 55.8287 19.3456ZM68.2332 19.3724C68.2332 18.2673 68.0104 17.3049 67.5649 16.4851C67.1193 15.6652 66.5133 15.0415 65.747 14.6137C64.9984 14.1681 64.1697 13.9454 63.2607 13.9454C62.3517 13.9454 61.523 14.1592 60.7744 14.587C60.0259 15.0147 59.4288 15.6385 58.9833 16.4584C58.5377 17.2782 58.3149 18.2406 58.3149 19.3456C58.3149 20.4684 58.5377 21.4487 58.9833 22.2864C59.4288 23.1062 60.0259 23.7389 60.7744 24.1845C61.523 24.6122 62.3517 24.8261 63.2607 24.8261C64.1697 24.8261 64.9984 24.6122 65.747 24.1845C66.5133 23.7389 67.1193 23.1062 67.5649 22.2864C68.0104 21.4487 68.2332 20.4774 68.2332 19.3724Z" fill="white"/>
<path d="M79.8032 11.8066C81.5854 11.8066 83.0291 12.3502 84.1341 13.4374C85.2391 14.5068 85.7916 16.0573 85.7916 18.0891V26.7242H83.3855V18.4367C83.3855 16.9752 83.0202 15.8613 82.2894 15.0949C81.5587 14.3107 80.5606 13.9186 79.2952 13.9186C78.012 13.9186 76.9872 14.3196 76.2208 15.1217C75.4723 15.9237 75.098 17.0911 75.098 18.6238V26.7242H72.6652V12.074H75.098V14.1592C75.5792 13.4107 76.2297 12.8314 77.0496 12.4215C77.8872 12.0116 78.8051 11.8066 79.8032 11.8066Z" fill="white"/>
<path d="M95.2653 26.9522C94.7811 26.8845 94.3036 26.3202 93.8664 25.3924L89.3349 15.7416C89.3299 15.7229 89.3251 15.7042 89.3204 15.6853C88.9604 14.2527 89.1797 12.9488 89.8064 12.6902C90.2595 12.5032 90.7055 12.8299 91.0857 13.4357L93.9891 19.8628L93.9933 19.8795L95.5732 23.31L96.82 20.2508L96.8185 20.2703L102.467 6.39592C102.779 5.7143 103.252 5.17071 103.677 5.33394C104.192 5.53233 104.372 6.71049 104.059 8.04605C103.969 8.42763 103.823 8.82212 103.707 9.08942L96.8139 25.4335C96.3344 26.5663 95.807 27.1606 95.2913 26.9622L95.2653 26.9522Z" fill="white"/>
</g>
<defs>
<linearGradient id="paint0_linear_12_1368" x1="67.4222" y1="0" x2="67.4222" y2="27" gradientUnits="userSpaceOnUse">
<stop stop-color="#FFD000"/>
<stop offset="1" stop-color="#FFD000" stop-opacity="0"/>
</linearGradient>
<linearGradient id="paint1_linear_12_1368" x1="67.4222" y1="0" x2="67.4222" y2="27" gradientUnits="userSpaceOnUse">
<stop stop-color="#FFD000"/>
<stop offset="1" stop-color="#FFD000" stop-opacity="0"/>
</linearGradient>
</defs>
</svg>
